<svg xmlns="http://www.w3.org/2000/svg" viewBox="0 63.958 363.605 235.689"><path fill="#ececec" d="M192.486 63.958c-5.348 0-8.67 4.827-8.67 12.603.071 7.678 3.246 12.448 8.285 12.448 5.51 0 8.67-4.655 8.67-12.771 0-7.689-3.097-12.28-8.285-12.28m-.211 21.168c-2.391 0-3.875-3.271-3.875-8.537 0-5.313 1.535-8.747 3.912-8.747 3.37 0 3.873 5.349 3.873 8.537.001 3.267-.507 8.747-3.91 8.747M204.798 70.288a.75.75 0 0 0 1.084.477l2.925-1.579v18.687c0 .414.336.75.75.75h2.98a.75.75 0 0 0 .75-.75V65.094a.75.75 0 0 0-.75-.75h-2.631a.74.74 0 0 0-.354.089l-4.975 2.662a.75.75 0 0 0-.374.845zM226.994 89.009c5.511 0 8.672-4.655 8.672-12.771 0-7.689-3.098-12.28-8.285-12.28-5.348 0-8.67 4.827-8.67 12.603.069 7.679 3.243 12.448 8.283 12.448m.211-21.167c3.373 0 3.877 5.349 3.877 8.537 0 3.267-.508 8.747-3.912 8.747-2.392 0-3.877-3.271-3.877-8.537 0-5.313 1.535-8.747 3.912-8.747M247.43 63.958c-5.348 0-8.67 4.827-8.67 12.603.071 7.678 3.246 12.448 8.285 12.448 5.511 0 8.672-4.655 8.672-12.771 0-7.689-3.098-12.28-8.287-12.28m-.209 21.168c-2.392 0-3.877-3.271-3.877-8.537 0-5.313 1.535-8.747 3.912-8.747 3.371 0 3.875 5.349 3.875 8.537 0 3.267-.508 8.747-3.91 8.747M259.741 70.288a.75.75 0 0 0 1.084.477l2.927-1.579v18.687c0 .414.336.75.75.75h2.979a.75.75 0 0 0 .75-.75V65.094a.75.75 0 0 0-.75-.75h-2.629a.74.74 0 0 0-.354.089l-4.975 2.662a.75.75 0 0 0-.374.844zM283.392 63.958c-5.348 0-8.67 4.827-8.67 12.603.071 7.678 3.246 12.448 8.285 12.448 5.51 0 8.67-4.655 8.67-12.771.001-7.689-3.097-12.28-8.285-12.28m-.21 21.168c-2.391 0-3.875-3.271-3.875-8.537 0-5.313 1.535-8.747 3.912-8.747 3.371 0 3.875 5.349 3.875 8.537 0 3.267-.508 8.747-3.912 8.747M295.706 70.288a.75.75 0 0 0 1.084.477l2.925-1.579v18.688c0 .414.336.75.75.75h2.978a.75.75 0 0 0 .75-.75v-22.78a.75.75 0 0 0-.75-.75h-2.629a.74.74 0 0 0-.353.089l-4.975 2.662a.75.75 0 0 0-.374.845zM318.971 89.009c5.511 0 8.672-4.655 8.672-12.771 0-7.689-3.098-12.28-8.285-12.28-5.349 0-8.672 4.827-8.672 12.603.071 7.679 3.246 12.448 8.285 12.448m.211-21.167c3.371 0 3.875 5.349 3.875 8.537 0 3.267-.508 8.747-3.91 8.747-2.392 0-3.877-3.271-3.877-8.537 0-5.313 1.535-8.747 3.912-8.747M331.667 70.288a.75.75 0 0 0 1.084.477l2.925-1.579v18.687c0 .414.336.75.75.75h2.979a.75.75 0 0 0 .75-.75V65.094a.75.75 0 0 0-.75-.75h-2.627a.74.74 0 0 0-.354.089l-4.977 2.662a.75.75 0 0 0-.374.845zM355.32 63.958c-5.349 0-8.672 4.827-8.672 12.603.071 7.678 3.246 12.448 8.285 12.448 5.511 0 8.672-4.655 8.672-12.771 0-7.689-3.097-12.28-8.285-12.28m-.213 21.168c-2.389 0-3.873-3.271-3.873-8.537 0-5.313 1.535-8.747 3.91-8.747 3.373 0 3.877 5.349 3.877 8.537.001 3.267-.508 8.747-3.914 8.747M191.574 130.686h2.98a.75.75 0 0 0 .75-.75v-22.779a.75.75 0 0 0-.75-.75h-2.629a.74.74 0 0 0-.354.089l-4.977 2.662a.75.75 0 0 0-.373.846l.596 2.349a.75.75 0 0 0 1.083.476l2.923-1.578v18.686a.75.75 0 0 0 .751.749M210.082 131.072c5.511 0 8.672-4.654 8.672-12.77 0-7.689-3.098-12.28-8.285-12.28-5.349 0-8.672 4.826-8.672 12.602.071 7.679 3.246 12.448 8.285 12.448m.211-21.167c3.371 0 3.875 5.349 3.875 8.537 0 3.267-.508 8.747-3.91 8.747-2.392 0-3.877-3.271-3.877-8.538 0-5.313 1.535-8.746 3.912-8.746M223.862 112.829l2.927-1.58v18.687c0 .414.336.75.75.75h2.979a.75.75 0 0 0 .75-.75v-22.779a.75.75 0 0 0-.75-.75h-2.629a.74.74 0 0 0-.354.089l-4.977 2.662a.75.75 0 0 0-.374.845l.594 2.349a.75.75 0 0 0 1.084.477M246.045 131.072c5.511 0 8.672-4.654 8.672-12.77 0-7.689-3.098-12.28-8.287-12.28-5.348 0-8.67 4.826-8.67 12.602.071 7.679 3.246 12.448 8.285 12.448m.211-21.167c3.371 0 3.875 5.349 3.875 8.537 0 3.267-.508 8.747-3.91 8.747-2.392 0-3.877-3.271-3.877-8.538 0-5.313 1.535-8.746 3.912-8.746M258.741 112.352a.75.75 0 0 0 1.084.477l2.927-1.579v18.686c0 .414.336.75.75.75h2.979a.75.75 0 0 0 .75-.75v-22.779a.75.75 0 0 0-.75-.75h-2.629a.74.74 0 0 0-.354.089l-4.975 2.662a.75.75 0 0 0-.374.844zM282.392 106.022c-5.348 0-8.67 4.826-8.67 12.602.071 7.678 3.246 12.448 8.285 12.448 5.51 0 8.67-4.654 8.67-12.77.001-7.689-3.097-12.28-8.285-12.28m-.21 21.167c-2.391 0-3.875-3.271-3.875-8.538 0-5.313 1.535-8.747 3.912-8.747 3.371 0 3.875 5.349 3.875 8.537 0 3.268-.508 8.748-3.912 8.748M300.99 131.072c5.51 0 8.67-4.654 8.67-12.77 0-7.689-3.098-12.28-8.285-12.28-5.348 0-8.67 4.826-8.67 12.602.069 7.679 3.244 12.448 8.285 12.448m.209-21.167c3.371 0 3.875 5.349 3.875 8.537 0 3.267-.508 8.747-3.91 8.747-2.391 0-3.875-3.271-3.875-8.538 0-5.313 1.535-8.746 3.91-8.746M318.445 130.686h2.978a.75.75 0 0 0 .75-.75v-22.779a.75.75 0 0 0-.75-.75h-2.627a.74.74 0 0 0-.354.089l-4.977 2.662a.75.75 0 0 0-.374.845l.594 2.349a.75.75 0 0 0 1.084.477l2.925-1.579v18.686c.001.415.337.75.751.75M337.338 106.022c-5.349 0-8.672 4.826-8.672 12.602.071 7.678 3.246 12.448 8.285 12.448 5.511 0 8.672-4.654 8.672-12.77 0-7.689-3.098-12.28-8.285-12.28m-.211 21.167c-2.391 0-3.875-3.271-3.875-8.538 0-5.313 1.535-8.747 3.91-8.747 3.371 0 3.875 5.349 3.875 8.537 0 3.268-.508 8.748-3.91 8.748M192.486 148.085c-5.348 0-8.67 4.826-8.67 12.602.071 7.678 3.246 12.448 8.285 12.448 5.51 0 8.67-4.654 8.67-12.769 0-7.69-3.097-12.281-8.285-12.281m-.211 21.168c-2.391 0-3.875-3.271-3.875-8.537 0-5.314 1.535-8.748 3.912-8.748 3.37 0 3.873 5.349 3.873 8.537.001 3.267-.507 8.748-3.91 8.748M211.469 148.085c-5.349 0-8.672 4.826-8.672 12.602.071 7.678 3.246 12.448 8.285 12.448 5.511 0 8.672-4.654 8.672-12.769 0-7.69-3.098-12.281-8.285-12.281m-.211 21.168c-2.392 0-3.877-3.271-3.877-8.537 0-5.314 1.535-8.748 3.912-8.748 3.371 0 3.875 5.349 3.875 8.537 0 3.267-.508 8.748-3.91 8.748M228.539 172.75h2.979a.75.75 0 0 0 .75-.75v-22.779a.75.75 0 0 0-.75-.75h-2.629a.74.74 0 0 0-.354.089l-4.977 2.663a.75.75 0 0 0-.374.845l.594 2.348a.753.753 0 0 0 1.084.476l2.927-1.579V172c0 .414.336.75.75.75M247.43 148.085c-5.348 0-8.67 4.826-8.67 12.602.071 7.678 3.246 12.448 8.285 12.448 5.511 0 8.672-4.654 8.672-12.769 0-7.69-3.098-12.281-8.287-12.281m-.209 21.168c-2.392 0-3.877-3.271-3.877-8.537 0-5.314 1.535-8.748 3.912-8.748 3.371 0 3.875 5.349 3.875 8.537 0 3.267-.508 8.748-3.91 8.748M266.027 173.135c5.51 0 8.67-4.654 8.67-12.769 0-7.69-3.098-12.281-8.285-12.281-5.348 0-8.67 4.826-8.67 12.602.071 7.679 3.246 12.448 8.285 12.448m.211-21.167c3.371 0 3.875 5.349 3.875 8.537 0 3.267-.508 8.748-3.912 8.748-2.391 0-3.875-3.271-3.875-8.537 0-5.315 1.535-8.748 3.912-8.748M286.461 148.471h-2.629a.74.74 0 0 0-.354.089l-4.975 2.663a.75.75 0 0 0-.374.844l.592 2.348a.75.75 0 0 0 1.083.477l2.928-1.578V172c0 .414.336.75.75.75h2.979a.75.75 0 0 0 .75-.75v-22.779a.75.75 0 0 0-.75-.75M302.375 148.085c-5.348 0-8.67 4.826-8.67 12.602.069 7.678 3.244 12.448 8.285 12.448 5.51 0 8.67-4.654 8.67-12.769 0-7.69-3.097-12.281-8.285-12.281m-.211 21.168c-2.391 0-3.875-3.271-3.875-8.537 0-5.314 1.535-8.748 3.91-8.748 3.371 0 3.875 5.349 3.875 8.537 0 3.267-.508 8.748-3.91 8.748M192.486 190.148c-5.348 0-8.67 4.826-8.67 12.602.071 7.678 3.246 12.447 8.285 12.447 5.51 0 8.67-4.654 8.67-12.77 0-7.688-3.097-12.279-8.285-12.279m-.211 21.168c-2.391 0-3.875-3.271-3.875-8.537 0-5.314 1.535-8.748 3.912-8.748 3.37 0 3.873 5.349 3.873 8.538.001 3.266-.507 8.747-3.91 8.747M211.082 215.198c5.511 0 8.672-4.654 8.672-12.77 0-7.689-3.098-12.28-8.285-12.28-5.349 0-8.672 4.826-8.672 12.602.071 7.679 3.246 12.448 8.285 12.448m.211-21.167c3.371 0 3.875 5.349 3.875 8.538 0 3.267-.508 8.747-3.91 8.747-2.392 0-3.877-3.271-3.877-8.537 0-5.314 1.535-8.748 3.912-8.748M224.204 196.982a.75.75 0 0 0 .658-.026l2.927-1.58v18.688c0 .414.336.75.75.75h2.979a.75.75 0 0 0 .75-.75v-22.779a.75.75 0 0 0-.75-.75h-2.629a.74.74 0 0 0-.354.089l-4.977 2.663a.75.75 0 0 0-.374.845l.594 2.348a.75.75 0 0 0 .426.502M245.77 214.063c0 .414.336.75.75.75h2.979a.75.75 0 0 0 .75-.75v-22.779a.75.75 0 0 0-.75-.75h-2.627a.74.74 0 0 0-.354.089l-4.977 2.663a.75.75 0 0 0-.374.845l.594 2.348a.75.75 0 0 0 1.084.476l2.925-1.579zM265.027 215.198c5.51 0 8.67-4.654 8.67-12.77 0-7.689-3.098-12.28-8.285-12.28-5.348 0-8.67 4.826-8.67 12.602.071 7.679 3.246 12.448 8.285 12.448m.211-21.167c3.371 0 3.875 5.349 3.875 8.538 0 3.267-.508 8.747-3.912 8.747-2.391 0-3.875-3.271-3.875-8.537 0-5.314 1.535-8.748 3.912-8.748M285.461 190.534h-2.629a.74.74 0 0 0-.354.089l-4.975 2.663a.75.75 0 0 0-.374.844l.592 2.348a.75.75 0 0 0 1.084.477l2.927-1.579v18.686c0 .414.336.75.75.75h2.979a.75.75 0 0 0 .75-.75v-22.779a.75.75 0 0 0-.75-.749M301.375 190.148c-5.348 0-8.67 4.826-8.67 12.602.069 7.678 3.244 12.447 8.285 12.447 5.51 0 8.67-4.654 8.67-12.77 0-7.688-3.097-12.279-8.285-12.279m-.211 21.168c-2.391 0-3.875-3.271-3.875-8.537 0-5.314 1.535-8.748 3.91-8.748 3.371 0 3.875 5.349 3.875 8.538 0 3.266-.508 8.747-3.91 8.747M320.357 190.148c-5.349 0-8.672 4.826-8.672 12.602.071 7.678 3.246 12.447 8.285 12.447 5.511 0 8.672-4.654 8.672-12.77 0-7.688-3.097-12.279-8.285-12.279m-.21 21.168c-2.392 0-3.877-3.271-3.877-8.537 0-5.314 1.535-8.748 3.912-8.748 3.371 0 3.875 5.349 3.875 8.538 0 3.266-.508 8.747-3.91 8.747M340.404 190.534h-2.627a.74.74 0 0 0-.354.089l-4.977 2.663a.75.75 0 0 0-.374.845l.594 2.348a.75.75 0 0 0 1.084.476l2.925-1.579v18.686c0 .414.336.75.75.75h2.979a.75.75 0 0 0 .75-.75v-22.779a.75.75 0 0 0-.75-.749"/><g fill="#ececec"><path d="M339.334 262.98H45.842V84.913h128.992v-20H36.166c-5.701 0-10.324 4.622-10.324 10.324V262.98h-7.508C8.209 262.98 0 271.188 0 281.314s8.209 18.333 18.334 18.333h321c10.125 0 18.334-8.208 18.334-18.333 0-10.126-8.209-18.334-18.334-18.334m-150.822 23.656h-19.355a5.322 5.322 0 0 1 0-10.644h19.355a5.322 5.322 0 0 1 0 10.644"/><path d="M192.102 257.262c5.51 0 8.67-4.655 8.67-12.771 0-7.689-3.098-12.28-8.285-12.28-5.348 0-8.67 4.826-8.67 12.603.071 7.678 3.246 12.448 8.285 12.448m.211-21.167c3.37 0 3.873 5.349 3.873 8.537 0 3.267-.508 8.747-3.91 8.747-2.391 0-3.875-3.271-3.875-8.537-.001-5.314 1.535-8.747 3.912-8.747"/></g><path fill="#ececec" d="M212.469 232.211c-5.349 0-8.672 4.826-8.672 12.603.071 7.678 3.246 12.448 8.285 12.448 5.511 0 8.672-4.655 8.672-12.771 0-7.689-3.098-12.28-8.285-12.28m-.211 21.168c-2.392 0-3.877-3.271-3.877-8.537 0-5.313 1.535-8.747 3.912-8.747 3.371 0 3.875 5.349 3.875 8.537 0 3.266-.508 8.747-3.91 8.747M232.449 232.211c-5.348 0-8.67 4.826-8.67 12.603.069 7.678 3.243 12.448 8.283 12.448 5.511 0 8.672-4.655 8.672-12.771 0-7.689-3.097-12.28-8.285-12.28m-.211 21.168c-2.392 0-3.877-3.271-3.877-8.537 0-5.313 1.535-8.747 3.912-8.747 3.373 0 3.877 5.349 3.877 8.537 0 3.266-.507 8.747-3.912 8.747M252.498 232.597h-2.627a.74.74 0 0 0-.354.089l-4.977 2.664a.75.75 0 0 0-.374.845l.594 2.348a.752.752 0 0 0 1.084.477l2.925-1.579v18.686c0 .414.336.75.75.75h2.979a.75.75 0 0 0 .75-.75v-22.779a.75.75 0 0 0-.75-.751M268.412 232.211c-5.348 0-8.67 4.826-8.67 12.603.071 7.678 3.246 12.448 8.285 12.448 5.51 0 8.67-4.655 8.67-12.771 0-7.689-3.097-12.28-8.285-12.28m-.211 21.168c-2.391 0-3.875-3.271-3.875-8.537 0-5.313 1.535-8.747 3.912-8.747 3.371 0 3.875 5.349 3.875 8.537 0 3.266-.508 8.747-3.912 8.747"/></svg>
