<svg xmlns="http://www.w3.org/2000/svg" viewBox="0 0 32.058 31.558"><g fill="#ececec"><circle cx="23.587" cy="4.021" r="3.881"/><path d="M15.613 24.533v-.959c0-.774.378-1.523.998-2.002v-3.275h-3.583a2.475 2.475 0 0 1-2.498-2.477c0-.227.102-.414.102-.623v-.887h.417c.46-.665 1.174-.997 1.979-.997h3.284c.036-.166.133-.221.133-.353V4.07c0-.742-.685-1.388-1.426-1.388H3.951c-.742 0-1.293.646-1.293 1.388v8.891c0 .742.551 1.35 1.293 1.35h4.521v1.162h-1.52c-.667 0-1.208.498-1.208 1.329H.576c-.344 0-.576.194-.576.539v1.406c0 .343.231.546.576.546h1.749v12.624h14.617v-5.686c.001.001-1.329-.28-1.329-1.698M5.904 12.317c-.741 0-1.419-.529-1.419-1.269V5.985c0-.742.678-1.309 1.419-1.309h7.198c.742 0 1.35.567 1.35 1.309v5.063c0 .74-.607 1.269-1.35 1.269z"/><path d="M26.173 8.547h-5.136c-3.147 0-3.346 3.151-3.346 3.151s-.42 2.124-.77 2.368a.66.66 0 0 1-.38.129h-3.516a1.495 1.495 0 1 0 0 2.99h3.516c.546 0 1.028.002 1.093-.014l-.032 3.669h1.997v-8.118c0-1.636 1.054-3.51 2.706-3.51h6.123c-.61-.499-1.399-.665-2.255-.665"/><path d="M30.049 25.107a2.01 2.01 0 0 0 2.009-2.01V12.789c0-1.241-1.051-2.299-2.291-2.299h-6.958c-1.24 0-2.211 1.058-2.211 2.299v9.162h-2.242c-.863 0-1.579.664-1.579 1.525v.566c0 .587.476 1.062 1.063 1.062h4.752v1.328h-.761s-1.897.045-1.897 1.809v2.531c0 .57.426 1.035 1 1.035.573 0 1.021-.469 1.021-1.041l-.016-2.34h3.476v2.346c0 .57.505 1.035 1.079 1.035s1.08-.465 1.08-1.035v-2.531c0-1.916-2.037-1.809-2.037-1.809h-.789v-1.328h5.301z"/></g></svg>
