<svg xmlns="http://www.w3.org/2000/svg" viewBox="0 0 44.678 44.678"><g fill="#ececec"><path d="m13.16 18.613-.094-1.042q.247-.14.468-.31l.781.451.887-.233 1.006-1.739-.233-.887s-.67-.389-1.005-.581a3.6 3.6 0 0 0-.069-.569l.796-.682v-.917l-1.309-1.526h-.917l-.652.559a4.3 4.3 0 0 0-.745-.279l-.063-.775-.648-.648-2.003.162-.648.648.082 1.021a4 4 0 0 0-.554.378c-.281-.13-.846-.387-.846-.387l-.887.232-.839 1.828-.029.125.263.762.982.449q.02.323.101.63c-.25.21-.749.635-.749.635v.916l1.299 1.534s.755.09.796.067l.122-.067.712-.604q.3.135.626.224l.074.809.648.648 2-.183zm-2.345-2.152a2.021 2.021 0 1 1 0-4.042 2.021 2.021 0 0 1 0 4.042M18.718 25.188l-.071-.789q.187-.104.354-.233c.197.112.59.341.59.341l.671-.176.761-1.315-.176-.67s-.506-.294-.76-.439a2.5 2.5 0 0 0-.052-.43l.602-.516v-.693l-.99-1.154h-.694l-.493.422a3.3 3.3 0 0 0-.563-.211l-.047-.586-.49-.49-1.514.123-.49.49.062.771q-.223.127-.419.286c-.212-.098-.639-.292-.639-.292l-.671.176-.634 1.382-.022.094.199.576.742.339c.011.164.036.32.077.477l-.566.479v.693l.982 1.16s.571.068.602.051l.092-.051.538-.456q.226.102.474.169l.056.611.49.49 1.512-.139zm-1.773-1.627a1.53 1.53 0 1 1 .003-3.059 1.53 1.53 0 0 1-.003 3.059M32.653 6.125H13.4c-1.612 0-1.612 2.5 0 2.5h19.253c1.612 0 1.612-2.5 0-2.5M32.653 12.042h-9.254c-1.611 0-1.611 2.5 0 2.5h9.254c1.612 0 1.612-2.5 0-2.5"/><path d="M7.198 3h29.055v15.867h3V0H4.198v9.784h3zM33.97 35.793a6 6 0 0 0-.084-.943l1.35-1.082.049-1.511-2.076-2.586-1.514-.049-1.104.887a7.2 7.2 0 0 0-1.213-.5l-.064-1.282-1.035-1.102-3.309.161-1.104 1.034s.055 1.125.08 1.687a7 7 0 0 0-.933.593l-1.374-.683-1.475.337-1.479 2.97-.055.203.392 1.271s1.063.526 1.595.791q.018.536.133 1.043c-.423.334-1.269 1.009-1.269 1.009l-.049 1.509 2.06 2.598s1.24.188 1.308.153l.204-.104 1.207-.957q.486.24 1.02.402l.078 1.338 1.035 1.102 3.305-.194 1.104-1.032-.1-1.724c.273-.146.539-.308.789-.487l1.264.786 1.475-.338 1.752-2.813-.338-1.476c.002-.001-1.082-.675-1.625-1.011m-6.965 3.386a3.335 3.335 0 1 1 .217-6.665 3.335 3.335 0 0 1-.217 6.665"/><path d="M40.116 28.74s-1.166-.725-1.75-1.086a6 6 0 0 0-.09-1.013l1.453-1.165.053-1.625-2.234-2.782-1.627-.053s-.793.635-1.188.955a7.5 7.5 0 0 0-1.307-.539c-.021-.46-.066-1.379-.066-1.379l-1.111-1.187-3.562.174-1.186 1.112s.059 1.209.086 1.813a7 7 0 0 0-1.002.64c-.492-.246-1.48-.734-1.48-.734l-1.584.363-1.593 3.192-.06.22.423 1.366 1.335.662.66-.619.27-.251.367-.018 2.656-.129a3.574 3.574 0 0 1 3.527-2.53 3.585 3.585 0 0 1 3.471 3.7 3.55 3.55 0 0 1-.379 1.479l1.865 2.324.232.289-.012.37-.031.958.758.471 1.586-.363 1.883-3.025zM5.927 25.189q.44 0 .73-.238.29-.236.436-.67.146-.436.146-1.145 0-.598-.09-.949a2 2 0 0 0-.25-.601 1.1 1.1 0 0 0-.404-.375 1.2 1.2 0 0 0-.568-.13q-.44 0-.729.236-.29.235-.438.67-.145.437-.146 1.149 0 1.134.396 1.637.334.416.917.416m-.549-3.411a.63.63 0 0 1 .544-.289q.345 0 .578.326.232.327.232 1.32 0 .989-.232 1.316-.233.33-.572.33-.34 0-.572-.328t-.232-1.318q-.003-.988.254-1.357M8.843 21.619a3 3 0 0 1-.725.473v.477q.231-.084.521-.254.289-.17.467-.34v3.147H9.6v-4.04h-.319a1.8 1.8 0 0 1-.438.537M6.993 27.587a1.1 1.1 0 0 0-.404-.375 1.2 1.2 0 0 0-.568-.13q-.439 0-.729.236-.288.234-.436.67-.146.435-.147 1.147 0 1.134.398 1.636.331.417.914.418.441 0 .732-.238.287-.238.435-.672.146-.433.146-1.144 0-.597-.09-.95a2.1 2.1 0 0 0-.251-.598m-.4 2.866q-.232.33-.572.33c-.34 0-.417-.11-.572-.329q-.231-.327-.23-1.318-.001-.989.253-1.358a.64.64 0 0 1 .544-.289q.346 0 .578.326.232.328.232 1.32-.001.99-.233 1.318M9.695 31.121v-4.04h-.319a1.9 1.9 0 0 1-.438.538 3 3 0 0 1-.724.473v.477q.23-.084.52-.254c.29-.17.349-.228.467-.34v3.147zM12.403 31.121v-4.04h-.318a1.9 1.9 0 0 1-.438.538 3 3 0 0 1-.724.473v.477q.23-.084.52-.254c.29-.17.35-.228.467-.34v3.147zM15.952 27.587a1.1 1.1 0 0 0-.404-.375 1.2 1.2 0 0 0-.567-.13q-.44 0-.73.236-.288.234-.436.67-.146.436-.146 1.148 0 1.134.397 1.637.332.416.915.416.44 0 .73-.238.289-.236.435-.67.146-.436.147-1.145 0-.598-.092-.949a2 2 0 0 0-.249-.6m-.4 2.866q-.232.33-.571.33-.341 0-.574-.329-.231-.327-.23-1.318 0-.989.253-1.358a.64.64 0 0 1 .544-.289q.346 0 .578.326.232.328.232 1.32.002.99-.232 1.318M6.993 34.332a1.1 1.1 0 0 0-.404-.376 1.2 1.2 0 0 0-.568-.13q-.439 0-.729.236-.288.235-.436.67-.146.435-.147 1.148 0 1.135.398 1.636.331.418.914.419.441 0 .732-.238.287-.238.435-.672.146-.434.146-1.145c0-.396-.03-.716-.09-.95a2.1 2.1 0 0 0-.251-.598m-.4 2.867q-.232.328-.572.328c-.34 0-.417-.108-.572-.328q-.231-.328-.23-1.318-.001-.988.253-1.357a.64.64 0 0 1 .544-.289q.346 0 .578.326.232.328.232 1.32-.001.988-.233 1.318M10.119 34.332a1.1 1.1 0 0 0-.404-.376 1.2 1.2 0 0 0-.568-.13q-.439 0-.729.236-.29.235-.438.67-.146.435-.146 1.147 0 1.135.396 1.636.332.418.915.418.442.001.73-.238.29-.235.436-.672.146-.433.146-1.144 0-.597-.09-.95a2 2 0 0 0-.248-.597m-.4 2.867q-.232.328-.572.328c-.34 0-.418-.108-.572-.328q-.232-.328-.232-1.318 0-.988.255-1.357a.64.64 0 0 1 .544-.289q.346 0 .578.326.232.328.232 1.32-.002.988-.233 1.318M13.243 34.332a1.1 1.1 0 0 0-.402-.376 1.2 1.2 0 0 0-.568-.13q-.439 0-.729.236-.29.235-.438.67-.146.435-.146 1.147 0 1.135.396 1.636.332.418.915.418.44.001.73-.238.289-.235.435-.672.146-.433.147-1.144 0-.597-.092-.95a1.9 1.9 0 0 0-.248-.597m-.399 2.867q-.232.328-.571.328-.341.001-.573-.328-.232-.328-.231-1.318 0-.988.254-1.357a.64.64 0 0 1 .544-.289q.345 0 .578.326.233.328.233 1.32-.002.988-.234 1.318M15.948 37.865v-4.039h-.318a1.8 1.8 0 0 1-.44.537 3 3 0 0 1-.724.474v.478q.23-.087.52-.256c.29-.169.35-.228.467-.34v3.148h.495zM18.615 40.912a3 3 0 0 1-.725.473v.477q.231-.085.521-.254a2.5 2.5 0 0 0 .467-.34v3.147h.494v-4.041h-.319a1.9 1.9 0 0 1-.438.538M6.993 41.076a1.1 1.1 0 0 0-.404-.375 1.2 1.2 0 0 0-.568-.131q-.439 0-.729.235-.288.236-.436.671-.146.436-.147 1.149 0 1.133.398 1.636.331.415.914.416.441 0 .732-.236.287-.238.435-.674.146-.434.146-1.142 0-.6-.09-.951a2.1 2.1 0 0 0-.251-.598m-.4 2.867q-.232.33-.572.33c-.34 0-.417-.11-.572-.33q-.231-.327-.23-1.316-.001-.99.253-1.359a.64.64 0 0 1 .544-.287q.346-.001.578.326.232.325.232 1.32-.001.987-.233 1.316M8.938 41.107a3 3 0 0 1-.724.474v.477q.23-.085.52-.254c.193-.112.349-.228.467-.34v3.147h.494V40.57h-.319q-.128.262-.438.537M11.647 41.107a3 3 0 0 1-.724.474v.477q.23-.085.52-.254a2.5 2.5 0 0 0 .467-.34v3.147h.494V40.57h-.318a1.8 1.8 0 0 1-.439.537M15.952 41.076a1.1 1.1 0 0 0-.404-.375 1.2 1.2 0 0 0-.567-.131q-.44 0-.73.235c-.29.235-.337.382-.436.671q-.146.436-.146 1.149 0 1.133.397 1.636.332.415.915.416.44 0 .73-.236c.29-.236.337-.384.435-.674q.146-.434.147-1.142 0-.6-.092-.951a2 2 0 0 0-.249-.598m-.4 2.867q-.232.33-.571.33-.341 0-.574-.33-.231-.327-.23-1.316 0-.99.253-1.359a.64.64 0 0 1 .544-.287q.346-.001.578.326.232.325.232 1.32.002.987-.232 1.316"/></g></svg>
